<svg width="64" height="59" viewBox="0 0 64 59" fill="none" xmlns="http://www.w3.org/2000/svg">
<path d="M52.8166 44.5588C47.8339 52.4204 39.1972 57.5138 29.2318 57.5138C13.7301 57.5138 1.21799 45.0017 1.21799 29.5C1.21799 13.9983 13.7301 1.48615 29.2318 1.48615C38.9758 1.48615 47.5017 6.35812 52.5952 13.8875" stroke="#65BC47" stroke-width="2.32526" stroke-miterlimit="22.9256" stroke-linecap="round" stroke-linejoin="round"/>
<path d="M55.1419 21.8599V37.1401" stroke="#65BC47" stroke-width="2.32526" stroke-miterlimit="22.9256" stroke-linecap="round" stroke-linejoin="round"/>
<path d="M62.782 29.5H47.5017" stroke="#65BC47" stroke-width="2.32526" stroke-miterlimit="22.9256" stroke-linecap="round" stroke-linejoin="round"/>
<path d="M37.3149 45.7768C41.1675 45.7768 44.2907 38.8364 44.2907 30.2751C44.2907 21.7137 41.1675 14.7733 37.3149 14.7733C33.4623 14.7733 30.3391 21.7137 30.3391 30.2751C30.3391 38.8364 33.4623 45.7768 37.3149 45.7768Z" stroke="#65BC47" stroke-width="2.32526" stroke-miterlimit="22.9256" stroke-linecap="round" stroke-linejoin="round"/>
<path d="M19.045 45.8875C22.8976 45.8875 26.0208 42.1695 26.0208 37.583C26.0208 32.9966 22.8976 29.2785 19.045 29.2785C15.1924 29.2785 12.0692 32.9966 12.0692 37.583C12.0692 42.1695 15.1924 45.8875 19.045 45.8875Z" stroke="#65BC47" stroke-width="2.32526" stroke-miterlimit="22.9256" stroke-linecap="round" stroke-linejoin="round"/>
<path d="M12.1799 37.583C10.6298 24.4065 17.9377 15.2162 24.2491 13.7768" stroke="#65BC47" stroke-width="2.32526" stroke-miterlimit="22.9256" stroke-linecap="round" stroke-linejoin="round"/>
</svg>
