<svg width="55" height="59" viewBox="0 0 55 59" fill="none" xmlns="http://www.w3.org/2000/svg">
<path d="M46.1154 57.8278C44.0502 52.1902 42.2082 46.5525 43.6594 40.9149C49.2971 36.3936 52.5346 31.4816 53.3718 26.0114C55.158 14.3453 48.2365 5.86093 37.352 2.7351C28.0861 0.11164 18.6528 0.279095 11.4522 7.36803C9.4986 9.26585 7.93569 11.4986 6.7635 14.0662C5.75877 16.1873 5.47968 18.5317 5.70296 20.8761C6.37278 27.1277 8.54969 24.6159 4.58659 31.4816C3.58186 33.2677 2.52131 34.7748 1.46076 36.1145C0.846759 37.2867 2.85622 38.8496 5.59132 39.4078C6.1495 41.4172 5.36805 42.701 5.59132 43.2592C5.75877 43.7058 6.20532 44.0965 7.43332 44.7663C5.47968 47.6131 6.93096 47.4456 9.66606 50.2365C10.2801 56.4324 11.9546 56.544 16.5317 55.93C20.7181 55.3718 24.5696 55.8184 27.5837 52.4134C29.2025 50.5714 30.2072 48.1712 31.8818 45.6036" stroke="#65BC47" stroke-width="2.34437" stroke-miterlimit="22.9256" stroke-linecap="round" stroke-linejoin="round"/>
<path d="M37.017 41.8638C36.8496 40.245 36.7938 36.1703 35.6216 35.1656C34.1703 33.9376 32.8307 34.6632 31.2678 34.0492C29.0908 33.2677 27.8628 31.8723 28.3652 29.4163C28.9234 26.2904 30.4863 26.3463 32.9423 26.2904C35.2867 26.2346 37.631 26.2346 39.9196 26.1788C41.5941 26.123 43.6036 26.1788 43.7152 28.579C43.7711 30.5326 42.2081 30.8675 40.7569 30.8675C38.859 30.8675 37.017 30.8675 35.175 30.8675" stroke="#65BC47" stroke-width="2.34437" stroke-miterlimit="22.9256" stroke-linecap="round" stroke-linejoin="round"/>
<path d="M28.7559 28.0208C26.1883 27.8534 22.2252 27.6859 22.281 23.9461C22.3926 20.5412 25.5184 19.983 28.0861 19.983C30.1514 19.9272 32.2166 19.9272 34.2819 19.8713C35.7332 20.3737 36.6263 21.211 37.3519 22.1599" stroke="#65BC47" stroke-width="2.34437" stroke-miterlimit="22.9256" stroke-linecap="round" stroke-linejoin="round"/>
<path d="M37.0171 16.913C36.8496 18.1968 35.9565 19.1457 34.282 19.8713" stroke="#65BC47" stroke-width="2.34437" stroke-miterlimit="22.9256" stroke-linecap="round" stroke-linejoin="round"/>
<path d="M19.4343 19.5922C20.6065 18.4201 21.053 17.3037 21.053 16.1873C23.4532 17.1921 25.4626 16.6339 26.9697 14.0104C28.7001 15.1268 30.4305 15.5175 32.105 14.3453" stroke="#65BC47" stroke-width="2.34437" stroke-miterlimit="22.9256" stroke-linecap="round" stroke-linejoin="round"/>
<path d="M22.5043 24.4484C20.4948 24.4484 18.5412 24.3926 16.5876 24.3368C14.4106 23.2204 13.2385 21.9366 13.1826 20.5412C13.1268 18.5317 13.8525 16.5781 16.1968 15.685C16.2526 13.5639 16.755 12.1684 17.5365 11.3311C18.597 10.2148 20.2158 10.0473 22.1694 10.438C25.2952 5.91675 28.0303 6.64238 30.5421 10.2706C33.5563 8.14948 35.7333 9.4333 37.5194 12.3917C42.4315 11.5544 43.9944 14.0104 43.3246 18.5875C47.3993 20.8202 47.5109 23.6112 43.2129 27.0719" stroke="#65BC47" stroke-width="2.34437" stroke-miterlimit="22.9256" stroke-linecap="round" stroke-linejoin="round"/>
</svg>
