<svg width="53" height="52" viewBox="0 0 53 52" fill="none" xmlns="http://www.w3.org/2000/svg">
<g clip-path="url(#clip0_316_48)">
<path fill-rule="evenodd" clip-rule="evenodd" d="M16.3127 36.3104C13.8567 33.997 11.8018 31.7339 10.1478 29.4959C8.21813 26.9562 6.76462 24.4416 5.71208 22.0025C3.3564 14.8611 3.98291 8.90158 9.14537 4.70224C11.2254 3.67127 12.2027 4.24962 13.1049 4.92856C15.3854 7.24196 17.6659 9.53022 19.9715 11.8185C21.2746 13.2518 21.5002 14.7354 20.1469 16.3447C18.8438 17.6523 17.5406 18.9599 16.2375 20.2674C18.0168 24.1399 20.2221 27.2831 22.7783 29.8228C25.3094 32.3877 28.4419 34.6005 32.3012 36.3607C33.6044 35.0531 34.9075 33.7455 36.2107 32.438C37.7895 31.1052 39.2931 31.3316 40.7216 32.6391C43.0021 34.9525 45.2826 37.2408 47.5631 39.5291C48.2397 40.4343 48.8161 41.415 47.8137 43.4769C43.6286 48.6821 37.6642 49.3107 30.5721 46.947C28.1161 45.8909 25.6352 44.4325 23.079 42.4962C20.8737 40.8115 18.6182 38.7747 16.3127 36.3104V36.3104Z" stroke="#65BC47" stroke-width="3.00726" stroke-miterlimit="22.9256" stroke-linecap="round" stroke-linejoin="round"/>
<path fill-rule="evenodd" clip-rule="evenodd" d="M44.2049 3.97302L46.3601 6.1607L48.5403 8.32323C48.8912 8.67527 48.8912 9.27876 48.5153 9.65595L39.5436 18.6581L42.2251 21.3487C42.4005 21.5247 42.4757 21.751 42.4757 22.0025C42.4506 22.5054 41.9244 22.6563 41.3229 22.7066L38.2655 23.0335L32.6019 23.637C31.7248 23.7375 29.5445 24.2153 28.9681 23.6118C28.3667 23.0335 28.8428 20.8458 28.9431 19.9405L29.5445 14.2828L29.8452 11.1898C29.9204 10.6115 30.0708 10.0834 30.572 10.0583C30.7975 10.0331 31.0481 10.1337 31.2236 10.3097L33.905 13.0003L42.8767 3.99817C43.2526 3.62098 43.829 3.62098 44.2049 3.97302V3.97302Z" stroke="#65BC47" stroke-width="3.00726" stroke-miterlimit="22.9256" stroke-linecap="round" stroke-linejoin="round"/>
</g>
<defs>
<clipPath id="clip0_316_48">
<rect width="51.8" height="51.9762" fill="white" transform="translate(0.700195)"/>
</clipPath>
</defs>
</svg>
