<svg width="53" height="52" viewBox="0 0 53 52" fill="none" xmlns="http://www.w3.org/2000/svg">
<g clip-path="url(#clip0_316_41)">
<path fill-rule="evenodd" clip-rule="evenodd" d="M16.3797 36.36C13.8246 34.0293 11.8501 31.6985 10.108 29.4843C8.24967 26.9204 6.7398 24.4731 5.69451 22.0258C3.37164 14.9169 3.95236 8.85693 9.17881 4.66154C11.2694 3.72923 12.1985 4.31192 13.1277 4.89462C15.4506 7.22539 17.6573 9.55616 19.9802 11.8869C21.2577 13.2854 21.49 14.8004 20.2124 16.3154C18.8187 17.7139 17.5411 18.9958 16.2636 20.2777C18.0057 24.1235 20.2124 27.27 22.7676 29.8339C25.3228 32.3977 28.4586 34.6119 32.2914 36.36C33.5689 35.0781 34.9627 33.7962 36.2402 32.5143C37.8663 31.1158 39.3761 31.3489 40.7698 32.6308C43.0927 34.9616 45.2994 37.2923 47.6223 39.6231C48.3192 40.4389 48.8999 41.4877 47.8546 43.5854C43.6734 48.7131 37.7501 49.2958 30.5492 46.965C28.1102 45.9162 25.6712 44.5177 23.116 42.5366C20.9093 40.905 18.5864 38.8073 16.3797 36.36V36.36Z" stroke="#65BC47" stroke-width="3.01345" stroke-miterlimit="22.9256" stroke-linecap="round" stroke-linejoin="round"/>
<path fill-rule="evenodd" clip-rule="evenodd" d="M33.3369 23.6573L31.1302 21.4431L28.9234 19.3454C28.575 18.9958 28.575 18.2965 28.9234 17.9469L37.9826 8.97346L35.3113 6.29308C35.079 6.06 34.9629 5.82692 34.9629 5.59385C35.079 5.12769 35.5436 5.01115 36.1243 4.89462L39.2602 4.545L44.9512 3.96231C45.7642 3.84577 47.971 3.37961 48.5517 3.96231C49.1324 4.545 48.6678 6.75923 48.5517 7.69154L47.971 13.4019L47.6225 16.4319C47.6225 17.0146 47.3903 17.5973 46.9257 17.5973C46.6934 17.5973 46.4611 17.4808 46.2288 17.3642L43.5575 14.6839L34.6145 23.6573C34.266 24.0069 33.6853 24.0069 33.3369 23.6573V23.6573Z" stroke="#65BC47" stroke-width="3.01345" stroke-miterlimit="22.9256" stroke-linecap="round" stroke-linejoin="round"/>
</g>
<defs>
<clipPath id="clip0_316_41">
<rect width="51.8" height="51.9762" fill="white" transform="translate(0.700195)"/>
</clipPath>
</defs>
</svg>
