<svg width="70" height="70" viewBox="0 0 70 70" fill="none" xmlns="http://www.w3.org/2000/svg">
<g clip-path="url(#clip0_313_339)">
<path fill-rule="evenodd" clip-rule="evenodd" d="M21.0983 48.9018C17.7795 45.7862 15.0025 42.7383 12.7674 39.7242C10.1598 36.3038 8.19557 32.9173 6.77322 29.6323C3.58986 20.0145 4.4365 11.9884 11.4128 6.33285C14.2236 4.94436 15.5444 5.72327 16.7635 6.63764C19.8453 9.75326 22.9271 12.835 26.0427 15.9168C27.8037 17.8471 28.1085 19.8452 26.2798 22.0126C24.5187 23.7736 22.7577 25.5346 20.9967 27.2956C23.4012 32.5109 26.3814 36.7441 29.8356 40.1645C33.256 43.6188 37.4892 46.5989 42.7045 48.9695C44.4655 47.2085 46.2265 45.4475 47.9875 43.6865C50.1211 41.8916 52.153 42.1964 54.0833 43.9574C57.1651 47.0731 60.2469 50.1548 63.3286 53.2366C64.243 54.4557 65.0219 55.7765 63.6673 58.5535C58.0117 65.5636 49.9517 66.4103 40.3678 63.2269C37.049 61.8045 33.6963 59.8403 30.242 57.2327C27.2619 54.9637 24.214 52.2206 21.0983 48.9018V48.9018Z" stroke="white" stroke-width="3.00726" stroke-miterlimit="22.9256" stroke-linecap="round" stroke-linejoin="round"/>
<path fill-rule="evenodd" clip-rule="evenodd" d="M58.7907 5.35075L61.7032 8.29705L64.6495 11.2095C65.1236 11.6836 65.1236 12.4964 64.6156 13.0044L52.4917 25.1282L56.1153 28.7518C56.3524 28.9889 56.454 29.2937 56.454 29.6323C56.4201 30.3096 55.709 30.5128 54.8962 30.5806L50.7646 31.0208L43.111 31.8336C41.9257 31.969 38.9794 32.6125 38.2005 31.7997C37.3877 31.0208 38.0312 28.0745 38.1666 26.8553L38.9794 19.2356L39.3858 15.0701C39.4874 14.2912 39.6906 13.5801 40.3679 13.5462C40.6727 13.5123 41.0113 13.6478 41.2484 13.8849L44.872 17.5085L56.9958 5.38461C57.5038 4.87663 58.2827 4.87663 58.7907 5.35075V5.35075Z" stroke="white" stroke-width="3.00726" stroke-miterlimit="22.9256" stroke-linecap="round" stroke-linejoin="round"/>
</g>
<defs>
<clipPath id="clip0_313_339">
<rect width="70" height="70" fill="white"/>
</clipPath>
</defs>
</svg>
