<svg width="70" height="70" viewBox="0 0 70 70" fill="none" xmlns="http://www.w3.org/2000/svg">
<g clip-path="url(#clip0_313_324)">
<path fill-rule="evenodd" clip-rule="evenodd" d="M21.1884 48.9686C17.7354 45.8296 15.0673 42.6906 12.713 39.7085C10.2018 36.2556 8.16144 32.9596 6.74889 29.6637C3.60987 20.0897 4.39463 11.9283 11.4574 6.27803C14.2825 5.02242 15.5381 5.80717 16.7937 6.59193C19.9327 9.73094 22.9148 12.87 26.0538 16.009C27.7803 17.8924 28.0942 19.9327 26.3677 21.9731C24.4843 23.8565 22.7579 25.583 21.0314 27.3094C23.3857 32.4888 26.3677 36.7265 29.8206 40.1794C33.2736 43.6323 37.5112 46.6143 42.6906 48.9686C44.417 47.2422 46.3005 45.5157 48.0269 43.7892C50.2242 41.9058 52.2646 42.2197 54.148 43.9462C57.287 47.0852 60.2691 50.2242 63.4081 53.3632C64.3498 54.4619 65.1345 55.8744 63.722 58.6996C58.0718 65.6054 50.0673 66.3901 40.3363 63.2511C37.0404 61.8386 33.7444 59.9552 30.2915 57.287C27.3094 55.0897 24.1704 52.2646 21.1884 48.9686V48.9686Z" stroke="white" stroke-width="3.01345" stroke-miterlimit="22.9256" stroke-linecap="round" stroke-linejoin="round"/>
<path fill-rule="evenodd" clip-rule="evenodd" d="M44.1029 31.861L41.1208 28.8789L38.1388 26.0538C37.6679 25.583 37.6679 24.6413 38.1388 24.1704L50.3809 12.0852L46.7711 8.47534C46.4572 8.16143 46.3002 7.84753 46.3002 7.53363C46.4572 6.90583 47.085 6.74888 47.8697 6.59193L52.1074 6.12107L59.798 5.33632C60.8966 5.17937 63.8787 4.55157 64.6635 5.33632C65.4482 6.12107 64.8204 9.10314 64.6635 10.3587L63.8787 18.0493L63.4078 22.13C63.4078 22.9148 63.0939 23.6996 62.4661 23.6996C62.1522 23.6996 61.8383 23.5426 61.5244 23.3857L57.9146 19.7758L45.8294 31.861C45.3585 32.3318 44.5738 32.3318 44.1029 31.861V31.861Z" stroke="white" stroke-width="3.01345" stroke-miterlimit="22.9256" stroke-linecap="round" stroke-linejoin="round"/>
</g>
<defs>
<clipPath id="clip0_313_324">
<rect width="70" height="70" fill="white"/>
</clipPath>
</defs>
</svg>
