<svg width="46" height="62" viewBox="0 0 46 62" fill="none" xmlns="http://www.w3.org/2000/svg">
<path fill-rule="evenodd" clip-rule="evenodd" d="M2.98192 40.4291L21.9523 47.4635C22.2143 47.5571 22.3639 47.8564 22.2704 48.1183L21.4285 50.4008C21.335 50.6627 21.0356 50.8123 20.7924 50.7188L1.82199 43.6657C1.56007 43.5722 1.41041 43.2915 1.50395 43.0296L2.34583 40.7285C2.43937 40.4665 2.72 40.3356 2.98192 40.4291V40.4291Z" stroke="#65BC47" stroke-width="2.33856" stroke-miterlimit="22.9256" stroke-linecap="round" stroke-linejoin="round"/>
<path fill-rule="evenodd" clip-rule="evenodd" d="M26.0308 21.5335C28.5377 21.5335 30.5582 23.554 30.5582 26.0423C30.5582 28.5492 28.519 30.5697 26.0308 30.5697C23.5426 30.5697 21.522 28.5305 21.522 26.0423C21.522 23.554 23.5426 21.5335 26.0308 21.5335V21.5335Z" stroke="#65BC47" stroke-width="2.33856" stroke-miterlimit="22.9256" stroke-linecap="round" stroke-linejoin="round"/>
<path fill-rule="evenodd" clip-rule="evenodd" d="M28.9306 29.5033C34.9922 30.7568 39.5571 36.1261 39.5571 42.5431C39.5571 49.9143 33.589 55.8636 26.2366 55.8636C20.9421 55.8636 16.3585 52.758 14.207 48.2679L8.31384 46.079C9.96019 54.4979 17.3501 60.8213 26.2366 60.8213C36.3392 60.8213 44.5148 52.6457 44.5148 42.5431C44.5148 33.8811 38.472 26.6222 30.3712 24.7513C30.4834 25.1629 30.5583 25.5932 30.5583 26.0422C30.5583 27.4267 29.9222 28.6801 28.9306 29.5033V29.5033Z" stroke="#65BC47" stroke-width="2.33856" stroke-miterlimit="22.9256" stroke-linecap="round" stroke-linejoin="round"/>
<path d="M10.9517 60.8214H40.2305" stroke="#65BC47" stroke-width="2.33856" stroke-miterlimit="22.9256" stroke-linecap="round" stroke-linejoin="round"/>
<path fill-rule="evenodd" clip-rule="evenodd" d="M21.1292 8.41885L29.8099 11.749L26.0495 21.5335H26.0308C23.5426 21.5335 21.522 23.554 21.522 26.0423C21.522 27.3893 22.102 28.5866 23.0374 29.4098L19.8196 37.7912L11.1201 34.4611L21.1292 8.41885V8.41885Z" stroke="#65BC47" stroke-width="2.33856" stroke-miterlimit="22.9256" stroke-linecap="round" stroke-linejoin="round"/>
<path fill-rule="evenodd" clip-rule="evenodd" d="M24.4593 1.17865L32.0175 4.07847L30.6892 7.53954L23.131 4.63972L24.4593 1.17865Z" stroke="#65BC47" stroke-width="2.33856" stroke-miterlimit="22.9256" stroke-linecap="round" stroke-linejoin="round"/>
<path fill-rule="evenodd" clip-rule="evenodd" d="M24.4406 5.12616L29.3422 7.01572L27.8081 11.0193L22.8878 9.12978L24.4406 5.12616Z" stroke="#65BC47" stroke-width="2.33856" stroke-miterlimit="22.9256" stroke-linecap="round" stroke-linejoin="round"/>
<path fill-rule="evenodd" clip-rule="evenodd" d="M13.3464 35.3965L17.2939 36.9119L16.0592 40.1297L12.093 38.6143L13.3464 35.3965Z" stroke="#65BC47" stroke-width="2.33856" stroke-miterlimit="22.9256" stroke-linecap="round" stroke-linejoin="round"/>
</svg>
