<svg width="53" height="60" viewBox="0 0 53 60" fill="none" xmlns="http://www.w3.org/2000/svg">
<path fill-rule="evenodd" clip-rule="evenodd" d="M26.5399 4.15445C29.2563 4.15445 31.8129 4.71371 34.0499 5.75232C34.769 3.11584 37.1658 1.19839 40.0419 1.19839C43.4774 1.19839 46.1937 3.91477 46.1937 7.19041C46.1937 9.98668 44.2763 12.3036 41.7197 13.0226C42.1991 14.3009 42.4387 15.5792 42.4387 17.0173C42.4387 24.0479 35.3282 29.8003 26.5399 29.8003C17.6718 29.8003 10.5613 24.0479 10.5613 17.0173C10.5613 15.5792 10.8009 14.3009 11.3602 13.0226C8.7237 12.3036 6.80626 9.98668 6.80626 7.19041C6.80626 3.91477 9.60253 1.19839 12.9581 1.19839C15.8342 1.19839 18.231 3.11584 18.9501 5.75232C21.1871 4.71371 23.7437 4.15445 26.5399 4.15445V4.15445Z" stroke="#65BC47" stroke-width="2.3968" stroke-miterlimit="22.9256" stroke-linecap="round" stroke-linejoin="round"/>
<path d="M26.54 26.7643C30.2905 26.7643 33.3309 24.332 33.3309 21.3316C33.3309 18.3311 30.2905 15.8988 26.54 15.8988C22.7894 15.8988 19.749 18.3311 19.749 21.3316C19.749 24.332 22.7894 26.7643 26.54 26.7643Z" stroke="#65BC47" stroke-width="2.3968" stroke-miterlimit="22.9256" stroke-linecap="round" stroke-linejoin="round"/>
<path d="M26.5399 26.7643V21.012" stroke="#65BC47" stroke-width="2.3968" stroke-miterlimit="22.9256" stroke-linecap="round" stroke-linejoin="round"/>
<path d="M24.3828 20.9321H28.5373" stroke="#65BC47" stroke-width="2.3968" stroke-miterlimit="22.9256" stroke-linecap="round" stroke-linejoin="round"/>
<path fill-rule="evenodd" clip-rule="evenodd" d="M10.002 43.0626C13.1977 42.1039 16.8728 44.7403 18.1511 49.0546C19.5093 53.3688 17.9115 57.6831 14.7157 58.6418C11.52 59.6005 7.84489 56.964 6.4867 52.6498C5.2084 48.3355 6.72638 44.0213 10.002 43.0626Z" stroke="#65BC47" stroke-width="2.3968" stroke-miterlimit="22.9256" stroke-linecap="round" stroke-linejoin="round"/>
<path fill-rule="evenodd" clip-rule="evenodd" d="M42.998 43.0626C39.8023 42.1039 36.1272 44.7403 34.8489 49.0546C33.5706 53.3688 35.0886 57.6831 38.2843 58.6418C41.5599 59.6005 45.235 56.964 46.5133 52.6498C47.7916 48.3355 46.2736 44.0213 42.998 43.0626V43.0626Z" stroke="#65BC47" stroke-width="2.3968" stroke-miterlimit="22.9256" stroke-linecap="round" stroke-linejoin="round"/>
<path d="M16.7131 57.4434C23.1844 59.201 29.7357 59.2809 36.287 57.4434" stroke="#65BC47" stroke-width="2.3968" stroke-miterlimit="22.9256" stroke-linecap="round" stroke-linejoin="round"/>
<path d="M16.1538 44.9001C16.1538 39.2277 20.7876 34.5939 26.4601 34.5939C32.1325 34.5939 36.7663 39.2277 36.7663 44.9001" stroke="#65BC47" stroke-width="2.3968" stroke-miterlimit="22.9256" stroke-linecap="round" stroke-linejoin="round"/>
<path d="M16.5533 27.004C6.4068 30.4394 0.734359 30.759 1.37351 35.8722C1.93276 40.1065 8.88349 38.4288 11.52 38.0293C11.3602 39.6272 11.2004 41.225 10.9607 42.8229" stroke="#65BC47" stroke-width="2.3968" stroke-miterlimit="22.9256" stroke-linecap="round" stroke-linejoin="round"/>
<path d="M36.4467 27.004C46.5932 30.4394 52.2657 30.759 51.6265 35.8722C51.0673 40.1065 44.1165 38.4288 41.48 38.0293C41.6398 39.6272 41.8795 41.225 42.0393 42.8229" stroke="#65BC47" stroke-width="2.3968" stroke-miterlimit="22.9256" stroke-linecap="round" stroke-linejoin="round"/>
<path d="M20.0686 13.4221C20.9069 13.4221 21.5866 12.7425 21.5866 11.9041C21.5866 11.0658 20.9069 10.3861 20.0686 10.3861C19.2302 10.3861 18.5506 11.0658 18.5506 11.9041C18.5506 12.7425 19.2302 13.4221 20.0686 13.4221Z" fill="#65BC47" stroke="#65BC47" stroke-width="0.878828" stroke-miterlimit="22.9256"/>
<path d="M32.9314 13.4221C33.7698 13.4221 34.4494 12.7425 34.4494 11.9041C34.4494 11.0658 33.7698 10.3861 32.9314 10.3861C32.0931 10.3861 31.4135 11.0658 31.4135 11.9041C31.4135 12.7425 32.0931 13.4221 32.9314 13.4221Z" fill="#65BC47" stroke="#65BC47" stroke-width="0.878828" stroke-miterlimit="22.9256"/>
</svg>
