<svg width="73" height="59" viewBox="0 0 73 59" fill="none" xmlns="http://www.w3.org/2000/svg">
<path fill-rule="evenodd" clip-rule="evenodd" d="M36.4357 9.47549C36.4357 9.47549 48.0379 28.2775 48.0379 35.8362C48.0379 43.3949 42.843 49.5245 36.4357 49.5245C30.0351 49.5245 24.8402 43.3949 24.8402 35.8362C24.8402 28.2775 36.4357 9.47549 36.4357 9.47549V9.47549Z" stroke="#65BC47" stroke-width="2.35025" stroke-miterlimit="22.9256" stroke-linecap="round" stroke-linejoin="round"/>
<path d="M27.8813 35.8362C27.8813 40.7128 31.0105 46.4834 36.4357 46.4834" stroke="#65BC47" stroke-width="2.35025" stroke-miterlimit="22.9256" stroke-linecap="round" stroke-linejoin="round"/>
<path d="M58.3194 47.4858C53.1244 53.7983 45.2542 57.8283 36.4357 57.8283C20.7967 57.8283 8.11078 45.1424 8.11078 29.4966C8.11078 27.8034 8.26656 26.1372 8.55103 24.5184M16.7125 9.17071C21.8126 4.22638 28.7753 1.17851 36.4357 1.17851C52.0814 1.17851 64.7673 13.8577 64.7673 29.4966C64.7673 30.9528 64.6522 32.3752 64.4422 33.7636" stroke="#65BC47" stroke-width="2.35025" stroke-miterlimit="22.9256" stroke-linecap="round" stroke-linejoin="round"/>
<path d="M1.36484 31.1966L8.55104 24.5184L15.2293 31.7114" stroke="#65BC47" stroke-width="2.35025" stroke-miterlimit="22.9256" stroke-linecap="round" stroke-linejoin="round"/>
<path d="M71.6352 27.0854L64.4422 33.7636L57.7708 26.5774" stroke="#65BC47" stroke-width="2.35025" stroke-miterlimit="22.9256" stroke-linecap="round" stroke-linejoin="round"/>
</svg>
