<svg width="58" height="58" viewBox="0 0 58 58" fill="none" xmlns="http://www.w3.org/2000/svg">
<path d="M32.9935 35.5607C24.0558 29.5705 14.0721 20.823 14.0721 11.7902C14.0721 2.94754 23.3902 -3.99344 32.9935 6.27541C42.5017 -3.99344 51.9148 2.94754 51.9148 11.7902C51.9148 20.823 41.8361 29.5705 32.9935 35.5607Z" stroke="#65BC47" stroke-width="2.37705" stroke-miterlimit="22.9256" stroke-linecap="round" stroke-linejoin="round"/>
<path d="M15.3082 17.5902H28.1443L30.0459 22.9148L34.8951 10.7443L36.5115 17.5902H50.5836" stroke="#65BC47" stroke-width="2.37705" stroke-miterlimit="22.9256" stroke-linecap="round" stroke-linejoin="round"/>
<path d="M1.33118 49.7279C7.41642 47.6361 12.8361 44.6885 17.4951 40.8852C21.7738 38.0328 23.1049 39.6492 28.7148 40.1246C30.9968 40.3148 33.3738 40.5049 35.2754 40.6C38.7935 40.7902 39.364 40.6 40.4099 42.3115C43.1672 41.1705 54.3869 35.2754 56.4787 38.0328C57.8099 39.7443 51.8197 43.3574 46.5902 46.3049C43.7377 48.0164 38.4131 52.7705 35.1804 51.8197C30.2361 51.6295 25.9574 51.8197 22.3443 52.2951C17.5902 53.0557 14.0722 54.482 12.2656 56.7639" stroke="#65BC47" stroke-width="2.37705" stroke-miterlimit="22.9256" stroke-linecap="round" stroke-linejoin="round"/>
<path d="M40.4099 42.3115C40.505 44.2131 40.0296 45.6393 37.6525 45.5443C33.0886 45.3541 29.3804 45.6393 26.8132 46.5902" stroke="#65BC47" stroke-width="2.37705" stroke-miterlimit="22.9256" stroke-linecap="round" stroke-linejoin="round"/>
</svg>
