<svg width="39" height="70" viewBox="0 0 39 70" fill="none" xmlns="http://www.w3.org/2000/svg">
<path d="M9.45455 14.5151C2.49495 15.303 1.18182 19.1111 1.18182 21.3434C1.18182 27.3838 1.18182 33.4242 1.18182 39.3333C1.0505 40.7778 1.57576 41.5656 2.62626 41.9596M11.9495 66.5151C13.2626 67.9596 14.5758 68.6161 15.8889 68.4848C18.2525 68.0909 18.7778 66.5151 18.7778 64.5454V45.5M11.9495 66.5151C10.6364 67.697 9.58586 68.3535 8.40404 68.3535C5.77778 68.2222 5.38384 66.3838 5.38384 64.4141V27.2525M11.9495 66.5151V42.6161M14.5758 14.5151C21.6667 15.303 22.9798 19.1111 22.9798 21.3434M12.0808 1.51514C14.8384 1.51514 16.9394 4.01009 16.9394 7.1616C16.9394 10.3131 14.8384 12.8081 12.0808 12.8081C9.32323 12.8081 7.09091 10.3131 7.09091 7.1616C7.09091 4.01009 9.32323 1.51514 12.0808 1.51514Z" stroke="#65BC47" stroke-width="2.36364" stroke-miterlimit="22.9256" stroke-linecap="round" stroke-linejoin="round"/>
<path fill-rule="evenodd" clip-rule="evenodd" d="M25.7374 48.1313C19.8283 45.899 14.9697 42.8788 13.6566 37.4949C13.6566 31.8485 13.6566 26.202 13.6566 20.5555C18.6465 20.8182 22.4545 18.9798 25.7374 16.0909C29.0202 18.9798 32.9596 20.8182 37.8182 20.5555C37.8182 26.202 37.8182 31.8485 37.8182 37.4949C36.6364 42.8788 31.6465 45.899 25.7374 48.1313Z" fill="#FEFEFE" stroke="#65BC47" stroke-width="2.36364" stroke-miterlimit="22.9256" stroke-linecap="round" stroke-linejoin="round"/>
<path d="M18.6465 23.3131L22.3233 25.9394L25.7374 23.4444" stroke="#65BC47" stroke-width="2.36364" stroke-miterlimit="22.9256" stroke-linecap="round" stroke-linejoin="round"/>
<path d="M22.3232 32.1111V25.9394H22.1919" stroke="#65BC47" stroke-width="2.36364" stroke-miterlimit="22.9256" stroke-linecap="round" stroke-linejoin="round"/>
<path d="M27.1818 27.2525L30.8586 29.7475L34.2727 27.3838" stroke="#65BC47" stroke-width="2.36364" stroke-miterlimit="22.9256" stroke-linecap="round" stroke-linejoin="round"/>
<path d="M30.7273 36.0505V29.7475H30.5959" stroke="#65BC47" stroke-width="2.36364" stroke-miterlimit="22.9256" stroke-linecap="round" stroke-linejoin="round"/>
<path d="M20.6161 35.6566L24.1616 38.1515L27.5757 35.6566" stroke="#65BC47" stroke-width="2.36364" stroke-miterlimit="22.9256" stroke-linecap="round" stroke-linejoin="round"/>
<path d="M24.1616 44.4545V38.1515H24.0303" stroke="#65BC47" stroke-width="2.36364" stroke-miterlimit="22.9256" stroke-linecap="round" stroke-linejoin="round"/>
</svg>
