<svg width="29" height="29" viewBox="0 0 29 29" fill="none" xmlns="http://www.w3.org/2000/svg">
<circle cx="14.7395" cy="14.261" r="14.261" fill="#65BC47"/>
<path d="M20.4768 6.88477H9.98599C9.29041 6.88477 8.62331 7.16109 8.13146 7.65294C7.6396 8.14479 7.36328 8.81189 7.36328 9.50748L7.36328 19.9983C7.36328 20.6939 7.6396 21.361 8.13146 21.8529C8.62331 22.3447 9.29041 22.621 9.98599 22.621H20.4768C21.1724 22.621 21.8395 22.3447 22.3314 21.8529C22.8232 21.361 23.0995 20.6939 23.0995 19.9983V9.50748C23.0995 8.81189 22.8232 8.14479 22.3314 7.65294C21.8395 7.16109 21.1724 6.88477 20.4768 6.88477V6.88477ZM21.7882 19.9983C21.7882 20.3461 21.65 20.6797 21.4041 20.9256C21.1582 21.1715 20.8246 21.3097 20.4768 21.3097H9.98599C9.6382 21.3097 9.30465 21.1715 9.05872 20.9256C8.8128 20.6797 8.67464 20.3461 8.67464 19.9983V9.50748C8.67464 9.15968 8.8128 8.82613 9.05872 8.58021C9.30465 8.33428 9.6382 8.19612 9.98599 8.19612H20.4768C20.8246 8.19612 21.1582 8.33428 21.4041 8.58021C21.65 8.82613 21.7882 9.15968 21.7882 9.50748V19.9983Z" fill="#4D5964"/>
<path d="M15.2319 10.8188C14.4538 10.8188 13.6932 11.0496 13.0463 11.4819C12.3993 11.9141 11.8951 12.5286 11.5973 13.2474C11.2996 13.9663 11.2216 14.7573 11.3734 15.5204C11.5252 16.2835 11.8999 16.9845 12.4501 17.5347C13.0003 18.0849 13.7013 18.4596 14.4644 18.6114C15.2276 18.7632 16.0186 18.6853 16.7374 18.3875C17.4563 18.0898 18.0707 17.5855 18.503 16.9386C18.9353 16.2916 19.166 15.531 19.166 14.7529C19.166 13.7095 18.7515 12.7089 18.0137 11.9711C17.2759 11.2333 16.2753 10.8188 15.2319 10.8188ZM15.2319 17.3756C14.7132 17.3756 14.2061 17.2218 13.7748 16.9336C13.3435 16.6454 13.0074 16.2358 12.8089 15.7566C12.6103 15.2773 12.5584 14.75 12.6596 14.2412C12.7608 13.7325 13.0106 13.2652 13.3774 12.8984C13.7442 12.5316 14.2115 12.2818 14.7203 12.1806C15.229 12.0794 15.7563 12.1313 16.2356 12.3298C16.7148 12.5284 17.1244 12.8645 17.4126 13.2958C17.7008 13.7271 17.8546 14.2342 17.8546 14.7529C17.8546 15.4485 17.5783 16.1156 17.0865 16.6075C16.5946 17.0993 15.9275 17.3756 15.2319 17.3756Z" fill="#4D5964"/>
<path d="M19.4933 11.4744C20.0365 11.4744 20.4768 11.034 20.4768 10.4908C20.4768 9.94766 20.0365 9.50732 19.4933 9.50732C18.9501 9.50732 18.5098 9.94766 18.5098 10.4908C18.5098 11.034 18.9501 11.4744 19.4933 11.4744Z" fill="#4D5964"/>
</svg>
