<svg width="55" height="53" viewBox="0 0 55 53" fill="none" xmlns="http://www.w3.org/2000/svg">
<path fill-rule="evenodd" clip-rule="evenodd" d="M21.3846 7.78322C21.1375 5.18881 20.1492 3.82984 18.9138 3.58275C14.8368 2.71795 7.91842 9.01865 3.71795 20.7552C1.61772 26.8089 0.629373 34.345 2.23543 43.1166C2.97669 47.1935 4.08858 50.2821 5.5711 51.2704C6.68299 52.1352 8.1655 51.8881 9.89511 50.035C15.331 44.352 21.3846 44.1049 23.2378 40.7692C23.8555 39.7809 21.5082 8.15385 21.3846 7.78322V7.78322Z" stroke="#65BC47" stroke-width="2.34732" stroke-miterlimit="22.9256" stroke-linecap="round" stroke-linejoin="round"/>
<path d="M19.4079 19.5198C18.7902 20.1375 18.1725 21.1259 17.6783 22.2378C15.2075 27.6737 18.5431 35.704 14.8369 41.5105" stroke="#65BC47" stroke-width="2.34732" stroke-miterlimit="22.9256" stroke-linecap="round" stroke-linejoin="round"/>
<path d="M16.69 29.4033C14.0956 31.627 10.8835 32.8625 8.28908 34.345C7.42427 34.8392 6.68302 35.704 6.18884 36.4452" stroke="#65BC47" stroke-width="2.34732" stroke-miterlimit="22.9256" stroke-linecap="round" stroke-linejoin="round"/>
<path d="M16.69 29.4033C16.1958 28.7856 15.5781 28.2914 14.8369 27.9207C13.2308 27.0559 10.3893 27.9207 9.03033 26.4382" stroke="#65BC47" stroke-width="2.34732" stroke-miterlimit="22.9256" stroke-linecap="round" stroke-linejoin="round"/>
<path d="M12.613 13.9604C14.2191 14.9487 14.3426 18.4079 15.2074 20.3846C15.7016 21.62 16.69 22.2378 17.1841 22.979" stroke="#65BC47" stroke-width="2.34732" stroke-miterlimit="22.9256" stroke-linecap="round" stroke-linejoin="round"/>
<path d="M8.4126 21.1259C10.3893 20.1375 12.7366 20.1375 15.2075 20.3846" stroke="#65BC47" stroke-width="2.34732" stroke-miterlimit="22.9256" stroke-linecap="round" stroke-linejoin="round"/>
<path d="M24.5967 1.11189C24.8438 1.97669 25.0909 2.71795 25.338 3.58275C24.4732 4.81819 24.4732 6.17716 25.338 7.41259C24.5967 8.64802 24.4732 9.88345 25.338 11.1189C24.8438 11.7366 24.4732 12.6014 24.4732 13.9604C23.3613 14.2075 22.62 15.0723 22.0023 16.0606" stroke="#65BC47" stroke-width="2.34732" stroke-miterlimit="22.9256" stroke-linecap="round" stroke-linejoin="round"/>
<path fill-rule="evenodd" clip-rule="evenodd" d="M33.6154 7.78322C33.8625 5.18881 34.8508 3.82984 36.0862 3.58275C40.1632 2.71795 47.0816 9.01865 51.282 20.7552C53.3823 26.8089 54.3706 34.345 52.8881 43.1166C52.0233 47.1935 50.9114 50.2821 49.4289 51.2704C48.317 52.1352 46.8345 51.8881 45.1049 50.035C39.669 44.352 33.6154 44.1049 31.7622 40.7692C31.1445 39.7809 33.6154 8.15385 33.6154 7.78322V7.78322Z" stroke="#65BC47" stroke-width="2.34732" stroke-miterlimit="22.9256" stroke-linecap="round" stroke-linejoin="round"/>
<path d="M35.5921 19.5198C36.2098 20.1375 36.8275 21.1259 37.3217 22.2378C39.7926 27.6737 36.4569 35.704 40.1632 41.5105" stroke="#65BC47" stroke-width="2.34732" stroke-miterlimit="22.9256" stroke-linecap="round" stroke-linejoin="round"/>
<path d="M38.31 29.4033C40.9044 31.627 44.1165 32.8625 46.7109 34.345C47.6993 34.8392 48.317 35.704 48.8112 36.4452" stroke="#65BC47" stroke-width="2.34732" stroke-miterlimit="22.9256" stroke-linecap="round" stroke-linejoin="round"/>
<path d="M38.31 29.4033C38.8042 28.7856 39.4219 28.2914 40.1631 27.9207C41.7692 27.0559 44.6107 27.9207 45.9697 26.4382" stroke="#65BC47" stroke-width="2.34732" stroke-miterlimit="22.9256" stroke-linecap="round" stroke-linejoin="round"/>
<path d="M42.3869 13.9604C40.7809 14.9487 40.6573 18.4079 39.7925 20.3846C39.2984 21.62 38.31 22.2378 37.9394 22.979" stroke="#65BC47" stroke-width="2.34732" stroke-miterlimit="22.9256" stroke-linecap="round" stroke-linejoin="round"/>
<path d="M46.711 21.1259C44.6107 20.1375 42.2634 20.1375 39.7925 20.3846" stroke="#65BC47" stroke-width="2.34732" stroke-miterlimit="22.9256" stroke-linecap="round" stroke-linejoin="round"/>
<path d="M30.4032 1.11189C30.1562 1.97669 29.9091 2.71795 29.662 3.58275C30.6503 4.81819 30.5268 6.17716 29.662 7.41259C30.4032 8.64802 30.5268 9.88345 29.662 11.1189C30.2797 11.7366 30.5268 12.6014 30.6503 13.9604C31.6387 14.2075 32.3799 15.0723 32.9977 16.0606" stroke="#65BC47" stroke-width="2.34732" stroke-miterlimit="22.9256" stroke-linecap="round" stroke-linejoin="round"/>
<path d="M22.2494 21.2494C23.3613 21.1259 24.2261 20.5082 24.5967 19.0256C25.5851 19.0256 26.5734 18.2844 26.6969 17.296C27.1911 17.5431 27.6853 17.5431 28.1795 17.296C28.303 18.2844 29.2913 19.0256 30.2797 19.0256C30.6503 20.5082 31.5151 21.1259 32.627 21.2494" stroke="#65BC47" stroke-width="2.34732" stroke-miterlimit="22.9256" stroke-linecap="round" stroke-linejoin="round"/>
</svg>
