<svg width="53" height="52" viewBox="0 0 53 52" fill="none" xmlns="http://www.w3.org/2000/svg">
<g clip-path="url(#clip0_316_55)">
<path fill-rule="evenodd" clip-rule="evenodd" d="M3.78855 9.59601H49.4116C50.4411 9.59601 51.2538 10.4387 51.2538 11.4717V40.5044C51.2538 41.5374 50.4411 42.3802 49.4116 42.3802H3.78855C2.75905 42.3802 1.94629 41.5374 1.94629 40.5044V11.4717C1.94629 10.4387 2.75905 9.59601 3.78855 9.59601V9.59601Z" stroke="#65BC47" stroke-width="2.98745" stroke-miterlimit="22.9256" stroke-linecap="round" stroke-linejoin="round"/>
<path fill-rule="evenodd" clip-rule="evenodd" d="M50.9288 10.4387L27.9277 30.7725C27.1962 31.4249 26.0041 31.4249 25.2997 30.7997L2.27148 10.4387C2.59659 9.92222 3.16552 9.59601 3.78864 9.59601H49.4117C50.0348 9.59601 50.6037 9.92222 50.9288 10.4387V10.4387Z" stroke="#65BC47" stroke-width="2.98745" stroke-miterlimit="22.9256" stroke-linecap="round" stroke-linejoin="round"/>
<path fill-rule="evenodd" clip-rule="evenodd" d="M50.9288 41.5646L33.3461 25.9881L27.9277 30.7725C27.1962 31.4249 26.0041 31.4249 25.2997 30.7997L19.8542 25.9881L2.27148 41.5646C2.59659 42.0539 3.16552 42.3801 3.78864 42.3801H49.4117C50.0348 42.3801 50.6037 42.0539 50.9288 41.5646V41.5646Z" stroke="#65BC47" stroke-width="2.98745" stroke-miterlimit="22.9256" stroke-linecap="round" stroke-linejoin="round"/>
</g>
<defs>
<clipPath id="clip0_316_55">
<rect width="51.8" height="51.9762" fill="white" transform="translate(0.700195)"/>
</clipPath>
</defs>
</svg>
