<svg width="70" height="70" viewBox="0 0 70 70" fill="none" xmlns="http://www.w3.org/2000/svg">
<path fill-rule="evenodd" clip-rule="evenodd" d="M4.17411 12.9236H65.8268C67.218 12.9236 68.3164 14.0586 68.3164 15.4498V54.5502C68.3164 55.9414 67.218 57.0764 65.8268 57.0764H4.17411C2.7829 57.0764 1.68457 55.9414 1.68457 54.5502V15.4498C1.68457 14.0586 2.7829 12.9236 4.17411 12.9236V12.9236Z" stroke="white" stroke-width="2.98745" stroke-miterlimit="22.9256" stroke-linecap="round" stroke-linejoin="round"/>
<path fill-rule="evenodd" clip-rule="evenodd" d="M67.8772 14.0586L36.7945 41.4435C35.806 42.3222 34.1952 42.3222 33.2433 41.4801L2.12402 14.0586C2.56335 13.363 3.33218 12.9236 4.17423 12.9236H65.827C66.669 12.9236 67.4378 13.363 67.8772 14.0586V14.0586Z" stroke="white" stroke-width="2.98745" stroke-miterlimit="22.9256" stroke-linecap="round" stroke-linejoin="round"/>
<path fill-rule="evenodd" clip-rule="evenodd" d="M67.8772 55.978L44.1167 35L36.7945 41.4435C35.806 42.3222 34.1952 42.3222 33.2433 41.4801L25.8845 35L2.12402 55.978C2.56335 56.637 3.33218 57.0764 4.17423 57.0764H65.827C66.669 57.0764 67.4378 56.637 67.8772 55.978V55.978Z" stroke="white" stroke-width="2.98745" stroke-miterlimit="22.9256" stroke-linecap="round" stroke-linejoin="round"/>
</svg>
