<svg width="53" height="47" viewBox="0 0 53 47" fill="none" xmlns="http://www.w3.org/2000/svg">
<path d="M7.83478 20.4276H18.8956" stroke="#65BC47" stroke-width="2.30435" stroke-miterlimit="22.9256" stroke-linecap="round" stroke-linejoin="round"/>
<path d="M7.83478 27.3406H45.0116" stroke="#65BC47" stroke-width="2.30435" stroke-miterlimit="22.9256" stroke-linecap="round" stroke-linejoin="round"/>
<path d="M7.83478 13.5145H18.8956" stroke="#65BC47" stroke-width="2.30435" stroke-miterlimit="22.9256" stroke-linecap="round" stroke-linejoin="round"/>
<path fill-rule="evenodd" clip-rule="evenodd" d="M51.771 3.83624V33.4855C51.771 34.7145 50.6957 35.7899 49.3131 35.7899H3.53335C2.30437 35.7899 1.229 34.7145 1.229 33.4855V3.83624C1.229 2.45363 2.30437 1.37827 3.53335 1.37827C25.6551 1.37827 29.0348 1.37827 49.3131 1.37827C50.6957 1.37827 51.771 2.45363 51.771 3.83624Z" stroke="#65BC47" stroke-width="2.30435" stroke-miterlimit="22.9256" stroke-linecap="round" stroke-linejoin="round"/>
<path d="M13.9797 45.6217H39.0203" stroke="#65BC47" stroke-width="2.30435" stroke-miterlimit="22.9256" stroke-linecap="round" stroke-linejoin="round"/>
<path d="M23.0435 35.7899V45.4681" stroke="#65BC47" stroke-width="2.30435" stroke-miterlimit="22.9256" stroke-linecap="round" stroke-linejoin="round"/>
<path d="M29.8029 35.7899V45.4681" stroke="#65BC47" stroke-width="2.30435" stroke-miterlimit="22.9256" stroke-linecap="round" stroke-linejoin="round"/>
<path fill-rule="evenodd" clip-rule="evenodd" d="M36.8696 5.83334C38.4058 5.83334 39.6348 7.21595 39.6348 8.90581C39.6348 10.5957 38.4058 11.9783 36.8696 11.9783C35.487 11.9783 34.258 10.5957 34.258 8.90581C34.258 7.21595 35.487 5.83334 36.8696 5.83334V5.83334Z" stroke="#65BC47" stroke-width="2.30435" stroke-miterlimit="22.9256" stroke-linecap="round" stroke-linejoin="round"/>
<path d="M35.6406 13.2072C31.8 13.6681 31.1855 15.6652 31.1855 16.8942V20.2739M42.7073 20.2739V16.8942C42.7073 15.8188 41.9392 13.6681 38.2522 13.2072" stroke="#65BC47" stroke-width="2.30435" stroke-miterlimit="22.9256" stroke-linecap="round" stroke-linejoin="round"/>
<path d="M23.9652 1.68552V19.9667C23.9652 20.1203 24.1188 20.2739 24.2725 20.2739H51.1565" stroke="#65BC47" stroke-width="2.30435" stroke-miterlimit="22.9256" stroke-linecap="round" stroke-linejoin="round"/>
</svg>
