<svg width="625" height="557" viewBox="0 0 625 557" fill="none" xmlns="http://www.w3.org/2000/svg">
<path d="M494 495L449 433.5" stroke="#65BC47" stroke-width="3" stroke-linecap="round" stroke-linejoin="round" stroke-dasharray="6 6"/>
<path d="M388.5 555L362.5 477" stroke="#65BC47" stroke-width="3" stroke-linecap="round" stroke-linejoin="round" stroke-dasharray="6 6"/>
<path d="M115 479L178 415" stroke="#65BC47" stroke-width="3" stroke-linecap="round" stroke-linejoin="round" stroke-dasharray="6 6"/>
<path d="M44 350L112 328" stroke="#65BC47" stroke-width="3" stroke-linecap="round" stroke-linejoin="round" stroke-dasharray="6 6"/>
<path d="M2 226L102 236" stroke="#65BC47" stroke-width="3" stroke-linecap="round" stroke-linejoin="round" stroke-dasharray="6 6"/>
<path d="M106 112L143 137" stroke="#65BC47" stroke-width="3" stroke-linecap="round" stroke-linejoin="round" stroke-dasharray="6 6"/>
<path d="M318 2V67" stroke="#65BC47" stroke-width="3" stroke-linecap="round" stroke-linejoin="round" stroke-dasharray="6 6"/>
<path d="M557 384L507.5 357.5" stroke="#65BC47" stroke-width="3" stroke-linecap="round" stroke-linejoin="round" stroke-dasharray="6 6"/>
<path d="M623 260H514.5" stroke="#65BC47" stroke-width="3" stroke-linecap="round" stroke-linejoin="round" stroke-dasharray="6 6"/>
<path d="M577.5 142.5L504.5 173" stroke="#65BC47" stroke-width="3" stroke-linecap="round" stroke-linejoin="round" stroke-dasharray="6 6"/>
<path d="M453 33L422 85.5" stroke="#65BC47" stroke-width="3" stroke-linecap="round" stroke-linejoin="round" stroke-dasharray="6 6"/>
<circle cx="314.5" cy="268.5" r="187.5" stroke="#A7A7A7" stroke-width="3" stroke-linecap="round" stroke-linejoin="round" stroke-dasharray="4 12"/>
<path d="M476.5 152.999C541 246.499 517.564 372.59 414.5 439.999C322 500.499 150.5 457.999 120.5 306.499M139.5 175.999C189 80.4995 306.5 46.4995 397 87.4995" stroke="#A7A7A7" stroke-width="3" stroke-linecap="round" stroke-linejoin="round"/>
<path d="M375.749 65.7214C448.791 93.6177 494.682 141.23 514.512 204M250.29 468.27C369.153 506.2 481.888 441.608 516.806 326.234M142.5 388.5C68.9998 294 96.4999 109 260.249 65.3032" stroke="#A7A7A7" stroke-width="3" stroke-linecap="round" stroke-linejoin="round"/>
</svg>
