<svg width="27" height="27" viewBox="0 0 27 27" fill="none" xmlns="http://www.w3.org/2000/svg">
<path fill-rule="evenodd" clip-rule="evenodd" d="M27 13.5839C27 20.9627 20.9627 27 13.5839 27C6.03727 27 0 20.9627 0 13.5839C0 6.03727 6.03727 0 13.5839 0C20.9627 0 27 6.03727 27 13.5839ZM15.2609 17.441C17.2733 17.1056 18.4472 16.0994 18.4472 16.0994C19.118 15.5963 19.118 14.7578 18.6149 14.2547C18.2795 13.5839 17.441 13.5838 16.7702 14.087C16.7702 14.087 15.5963 14.9255 13.5839 14.9255C11.5714 14.9255 10.2298 14.087 10.2298 14.087C9.72671 13.5838 8.8882 13.5839 8.38509 14.2547C7.88199 14.7578 8.04969 15.5963 8.55279 16.0994C8.55279 16.0994 9.89441 17.1056 11.9068 17.441L9.0559 20.2919C8.55279 20.9627 8.55279 21.8012 9.0559 22.3043C9.3913 22.472 9.72671 22.6398 10.0621 22.6398C10.3975 22.6398 10.7329 22.472 10.9006 22.1366L13.5839 19.4534L16.4348 22.3043C16.9379 22.8075 17.7764 22.8075 18.2795 22.3043C18.7826 21.6335 18.7826 20.795 18.2795 20.2919L15.2609 17.441V17.441ZM13.5839 3.85714C10.9006 3.85714 8.7205 6.03727 8.7205 8.7205C8.7205 11.4037 10.9006 13.5839 13.5839 13.5839C16.2671 13.5839 18.4472 11.4037 18.4472 8.7205C18.4472 6.03727 16.2671 3.85714 13.5839 3.85714V3.85714ZM13.5839 10.7329C12.4099 10.7329 11.5714 9.89441 11.5714 8.7205C11.5714 7.54658 12.4099 6.70807 13.5839 6.70807C14.7578 6.70807 15.5963 7.54658 15.5963 8.7205C15.5963 9.89441 14.7578 10.7329 13.5839 10.7329Z" fill="#65BC47"/>
</svg>
