<svg width="14" height="20" viewBox="0 0 14 20" fill="none" xmlns="http://www.w3.org/2000/svg">
<path d="M8.0392 19.7082C7.09406 20.2815 5.8626 19.9809 5.28869 19.0368C1.76195 13.2353 0 9.28709 0 6.99256C0 3.13068 3.13401 0 7 0C10.866 0 14 3.13068 14 6.99256C14 9.28709 12.238 13.2353 8.71131 19.0368C8.54447 19.3112 8.31394 19.5415 8.0392 19.7082ZM7.00745 10C8.66606 10 10.0106 8.65685 10.0106 7C10.0106 5.34315 8.66606 4 7.00745 4C5.34883 4 4.00426 5.34315 4.00426 7C4.00426 8.65685 5.34883 10 7.00745 10Z" fill="#65BC47"/>
</svg>
