<svg width="18" height="18" viewBox="0 0 18 18" fill="none" xmlns="http://www.w3.org/2000/svg">
<path d="M13.6849 11.9076C13.0969 11.3271 12.3627 11.3271 11.7784 11.9076C11.3326 12.3496 10.8869 12.7916 10.4486 13.2411C10.3288 13.3647 10.2276 13.391 10.0815 13.3085C9.79312 13.1512 9.48598 13.0239 9.20879 12.8516C7.91652 12.0387 6.834 10.9937 5.8751 9.81754C5.39939 9.2332 4.97613 8.60767 4.68021 7.90347C4.62028 7.76113 4.63152 7.66749 4.74764 7.55137C5.19338 7.12062 5.62788 6.67862 6.06613 6.23663C6.67668 5.62233 6.67668 4.90315 6.06239 4.2851C5.71403 3.93301 5.36568 3.5884 5.01733 3.2363C4.65774 2.87671 4.3019 2.51338 3.93856 2.15753C3.35048 1.58444 2.61632 1.58444 2.03199 2.16128C1.5825 2.60328 1.15174 3.05651 0.694766 3.49101C0.2715 3.8918 0.0579936 4.38249 0.0130449 4.95559C-0.0581238 5.88827 0.170365 6.76852 0.492497 7.62629C1.15174 9.40176 2.1556 10.9787 3.37296 12.4246C5.01733 14.3798 6.98009 15.9268 9.27621 17.043C10.31 17.545 11.3813 17.9308 12.5462 17.9944C13.3478 18.0394 14.0445 17.8371 14.6026 17.2116C14.9847 16.7846 15.4155 16.395 15.82 15.9867C16.4193 15.3799 16.4231 14.6458 15.8275 14.0465C15.1158 13.331 14.4004 12.6193 13.6849 11.9076Z" fill="#65BC47"/>
<path d="M12.9695 8.92233L14.3517 8.68635C14.1345 7.41655 13.5351 6.26662 12.6249 5.35266C11.6623 4.39001 10.4449 3.7832 9.10396 3.59592L8.90918 4.98558C9.94674 5.13166 10.8907 5.59988 11.6361 6.34528C12.3403 7.04947 12.801 7.94095 12.9695 8.92233Z" fill="#65BC47"/>
<path d="M15.1309 2.91417C13.5352 1.31849 11.5163 0.310895 9.28755 0L9.09277 1.38966C11.0181 1.65935 12.7636 2.53211 14.142 3.90679C15.4493 5.21404 16.307 6.86591 16.6179 8.68258L18.0001 8.4466C17.6368 6.34151 16.6441 4.43119 15.1309 2.91417Z" fill="#65BC47"/>
</svg>
