<svg width="27" height="27" viewBox="0 0 27 27" fill="none" xmlns="http://www.w3.org/2000/svg">
<path fill-rule="evenodd" clip-rule="evenodd" d="M27 13.5C27 5.97857 21.0214 0 13.5 0C5.97857 0 0 5.97857 0 13.5C0 21.0214 5.97857 27 13.5 27C21.0214 27 27 21.0214 27 13.5ZM6.17143 13.3071C10.0286 11.5714 12.7286 10.6071 14.0786 10.0286C17.7429 8.48571 18.5143 8.1 19.0929 8.1C19.0929 8.1 19.2857 8.1 19.4786 8.29286C19.6714 8.48571 19.6714 8.48571 19.6714 8.67857C19.6714 8.67857 19.8643 9.06429 19.6714 9.25714C19.4786 11.3786 18.7071 16.5857 18.3214 18.9C18.1286 19.8643 17.7429 20.25 17.3571 20.25C16.5857 20.25 16.0071 19.6714 15.2357 19.2857C14.0786 18.5143 13.3071 17.9357 12.15 17.1643C10.8 16.3929 11.7643 15.8143 12.5357 15.0429C12.7286 14.85 16.2 11.7643 16.2 11.3786C16.2 11.3786 16.2 11.3786 16.2 11.1857C16.0071 11.1857 16.0071 11.1857 15.8143 11.1857C15.6214 11.1857 13.8857 12.5357 10.2214 15.0429C9.64286 15.4286 9.06429 15.4286 8.67857 15.4286C8.1 15.4286 7.32857 15.2357 6.55714 15.0429C5.78571 14.6571 5.01429 14.6571 5.01429 14.0786C5.20714 13.8857 5.4 13.6929 6.17143 13.3071Z" fill="#65BC47"/>
</svg>
