<svg width="30" height="22" viewBox="0 0 30 22" fill="none" xmlns="http://www.w3.org/2000/svg">
<path d="M29.1457 10.1934L27.4372 11.321L15 3.1125L2.56283 11.321L0.854279 10.1934L15 0.856812L29.1457 10.1934Z" fill="#65BC47"/>
<path d="M27.4372 11.8845L15 3.67637L2.56283 11.8845L0 10.193L15 0.29303L30 10.193L27.4372 11.8845ZM15 2.54872L27.4372 10.7569L28.2914 10.193L15 1.42068L1.70855 10.193L2.56283 10.7569L15 2.54872Z" fill="#65BC47"/>
<path d="M29.1457 15.143L27.4372 16.2707L15 8.06215L2.56283 16.2707L0.854279 15.143L15 5.80646L29.1457 15.143Z" fill="#65BC47"/>
<path d="M27.4372 16.8341L15 8.62601L2.56283 16.8341L0 15.1427L15 5.24268L30 15.1427L27.4372 16.8341ZM15 7.49837L27.4372 15.7065L28.2914 15.1427L15 6.37032L1.70855 15.1427L2.56283 15.7065L15 7.49837Z" fill="#65BC47"/>
<path d="M29.1457 20.3089L27.4372 21.4366L15 13.228L2.56283 21.4366L0.854279 20.3089L15 10.9724L29.1457 20.3089Z" fill="#65BC47"/>
<path d="M27.4372 22L15 13.7918L2.56283 22L0 20.3085L15 10.4085L30 20.3085L27.4372 22ZM15 12.6642L27.4372 20.8723L28.2914 20.3085L15 11.5362L1.70855 20.3085L2.56283 20.8723L15 12.6642Z" fill="#65BC47"/>
</svg>
