<svg width="29" height="29" viewBox="0 0 29 29" fill="none" xmlns="http://www.w3.org/2000/svg">
<circle cx="14.1019" cy="14.1019" r="14.1019" fill="#65BC47"/>
<path d="M19.8263 16.446C19.5457 16.1043 19.626 15.9522 19.8263 15.6468C19.83 15.6433 22.1464 12.5569 22.385 11.5101L22.3865 11.5094C22.5051 11.128 22.3865 10.8477 21.813 10.8477H19.9153C19.4322 10.8477 19.2094 11.0882 19.0901 11.3574C19.0901 11.3574 18.1239 13.5875 16.7571 15.0331C16.3159 15.4508 16.112 15.5847 15.8712 15.5847C15.7526 15.5847 15.5681 15.4508 15.5681 15.0694V11.5094C15.5681 11.052 15.4329 10.8477 15.033 10.8477H12.0491C11.746 10.8477 11.566 11.061 11.566 11.2598C11.566 11.6935 12.2494 11.7933 12.3203 13.0136V15.6614C12.3203 16.2416 12.2111 16.3483 11.9688 16.3483C11.3237 16.3483 9.75796 14.1091 8.83009 11.5464C8.64279 11.0492 8.45982 10.8484 7.9731 10.8484H6.07471C5.53303 10.8484 5.42383 11.0889 5.42383 11.3581C5.42383 11.8337 6.06892 14.1984 8.42366 17.3225C9.993 19.455 12.2031 20.6105 14.2136 20.6105C15.4221 20.6105 15.5696 20.3539 15.5696 19.9125C15.5696 17.8748 15.4604 17.6823 16.0657 17.6823C16.3463 17.6823 16.8294 17.8162 17.9576 18.8448C19.2471 20.0645 19.4589 20.6105 20.1807 20.6105H22.0784C22.6193 20.6105 22.8934 20.3539 22.7358 19.8476C22.3749 18.7828 19.9363 16.5924 19.8263 16.446Z" fill="#fff"/>
</svg>
