<svg width="51" height="49" viewBox="0 0 51 49" fill="none" xmlns="http://www.w3.org/2000/svg">
<path fill-rule="evenodd" clip-rule="evenodd" d="M5.66385 1.18072H43.6831C46.0446 1.18072 48.406 3.18795 47.9337 5.43133C46.5169 13.106 45.6904 20.6627 45.9265 27.8651H15.3458V34.5952H46.3988C46.753 37.6651 47.2253 40.6169 47.9337 43.5687C48.5241 45.8121 46.0446 47.8193 43.6831 47.8193H5.66385C3.30241 47.8193 0.940962 45.8121 1.41325 43.5687C3.89277 30.8169 3.7747 18.1831 1.41325 5.43133C0.940962 3.18795 3.30241 1.18072 5.66385 1.18072V1.18072Z" stroke="#65BC47" stroke-width="2.36145" stroke-miterlimit="22.9256" stroke-linecap="round" stroke-linejoin="round"/>
<path fill-rule="evenodd" clip-rule="evenodd" d="M41.6759 14.1687C40.6132 15.2313 39.5506 16.1759 38.3699 17.0024C34.4735 19.7181 29.7506 21.253 24.6735 21.253C19.2422 21.253 14.1651 19.4819 10.1506 16.412C9.32409 15.7036 8.61566 15.1133 7.90723 14.4048L15.7 6.49398C18.0614 8.73735 21.1313 10.1542 24.6735 10.1542C28.2157 10.1542 31.4036 8.73735 33.7651 6.3759L41.6759 14.1687V14.1687Z" stroke="#65BC47" stroke-width="2.36145" stroke-miterlimit="22.9256" stroke-linecap="round" stroke-linejoin="round"/>
<path d="M21.8398 10.1542L18.7699 15.4675" stroke="#65BC47" stroke-width="2.36145" stroke-miterlimit="22.9256" stroke-linecap="round" stroke-linejoin="round"/>
<path fill-rule="evenodd" clip-rule="evenodd" d="M15.3458 27.8651C26.7988 27.8651 38.2518 27.8651 49.7048 27.8651C49.4687 31.5253 48.2879 32.9422 46.3988 34.5952H15.3458V27.8651Z" stroke="#65BC47" stroke-width="2.36145" stroke-miterlimit="22.9256" stroke-linecap="round" stroke-linejoin="round"/>
<path fill-rule="evenodd" clip-rule="evenodd" d="M45.9265 27.8651H49.7048C49.4687 24.3229 48.2879 22.788 46.3988 21.1349H46.0446C45.9265 23.3783 45.8084 25.6217 45.9265 27.8651V27.8651Z" stroke="#65BC47" stroke-width="2.36145" stroke-miterlimit="22.9256" stroke-linecap="round" stroke-linejoin="round"/>
<path d="M20.659 27.8651V30.8169" stroke="#65BC47" stroke-width="2.36145" stroke-miterlimit="22.9256" stroke-linecap="round" stroke-linejoin="round"/>
<path d="M24.2012 27.8651V30.8169" stroke="#65BC47" stroke-width="2.36145" stroke-miterlimit="22.9256" stroke-linecap="round" stroke-linejoin="round"/>
<path d="M27.7434 27.8651V30.8169" stroke="#65BC47" stroke-width="2.36145" stroke-miterlimit="22.9256" stroke-linecap="round" stroke-linejoin="round"/>
<path d="M31.1675 27.8651V30.8169" stroke="#65BC47" stroke-width="2.36145" stroke-miterlimit="22.9256" stroke-linecap="round" stroke-linejoin="round"/>
<path d="M34.7096 27.8651V30.8169" stroke="#65BC47" stroke-width="2.36145" stroke-miterlimit="22.9256" stroke-linecap="round" stroke-linejoin="round"/>
<path d="M38.2518 27.8651V30.8169" stroke="#65BC47" stroke-width="2.36145" stroke-miterlimit="22.9256" stroke-linecap="round" stroke-linejoin="round"/>
<path d="M41.6759 27.8651V30.8169" stroke="#65BC47" stroke-width="2.36145" stroke-miterlimit="22.9256" stroke-linecap="round" stroke-linejoin="round"/>
<path d="M45.2181 27.8651V30.8169" stroke="#65BC47" stroke-width="2.36145" stroke-miterlimit="22.9256" stroke-linecap="round" stroke-linejoin="round"/>
</svg>
